<svg xmlns="http://www.w3.org/2000/svg" height="800" width="1200" viewBox="-77.412375 -20 670.90725 120"><path d="M7.5825 50.1l-.6-6h53.9l-.6 6zm.3 3.6l1.6 17.9c.4 4.6 4.5 8.4 9.2 8.4h30.4c4.7 0 8.8-3.8 9.2-8.4l1.6-17.9zm-1.7-19.1l.6 6h54.5l.6-6zm-.3-3.6l-2-21.4v-.1h60.3v.1l-2 21.4zm-5.8-28.1c-.4-1.6.7-2.9 2.3-2.9h63.1c1.6 0 2.7 1.3 2.4 2.9V3c-.3 1.7-1.9 3-3.5 3h-60.7c-1.7 0-3.3-1.3-3.6-2.9z" fill="#ff004d"/><path d="M88.4825 66h14.2V46.6h18.2V66h14.1V14.9h-14.2V34h-18.2V14.9h-14.1zm74.9.9c12.7 0 21.9-9.4 21.9-20.7v-.1c0-11.2-9.1-20.5-21.8-20.5-12.6 0-21.8 9.4-21.8 20.7v.1c0 11.3 9.2 20.5 21.7 20.5zm.2-11.7c-4.9 0-8.4-4.1-8.4-8.9v-.1c0-4.8 3.2-8.8 8.2-8.8 4.9 0 8.5 4.1 8.5 9v.1c0 4.7-3.3 8.7-8.3 8.7zm40.8 11.7c5.6 0 9.3-3.1 11.8-6.4V66h13.8V26.5h-13.8v21.4c0 4.3-2.5 6.6-5.8 6.6-3.4 0-5.6-2.3-5.6-6.6V26.5h-13.9v25.8c0 9 5.1 14.6 13.5 14.6zm48.7 0c9.6 0 16.1-4.5 16.1-13.2v-.1c0-7.7-6.2-10.4-14-12.6-4.1-1.2-6.4-2-6.4-3.5v-.1c0-1.2 1.1-2 3.2-2 3.1 0 7.6 1.4 11.7 3.7l4.7-8.8c-4.5-2.9-10.5-4.6-16.3-4.6-9.1 0-15.8 4.7-15.8 13.1v.1c0 7.9 6.2 10.5 14 12.6 4.2 1.2 6.4 1.8 6.4 3.4v.1c0 1.4-1.2 2.1-3.6 2.1-4.1 0-9-1.5-13.5-4.5l-5.2 8.3c5.5 4 12.1 6 18.7 6zm41.5 0c7.8 0 13.3-3.2 17.1-8l-7.7-6.4c-2.8 2.8-5.4 4-8.8 4-4.3 0-7.4-2.2-8.5-6.5h26.4c.1-.9.1-2 .1-2.8 0-11.6-6.3-21.6-19.9-21.6-11.7 0-19.9 9.1-19.9 20.7v.1c0 12.2 8.8 20.5 21.2 20.5zm-8.1-23.9c.7-4.4 3.2-7.2 6.9-7.2 3.8 0 6.4 2.8 6.9 7.2zm32.7 34.7h13.9V61.2c2.6 3 6.1 5.7 12 5.7 9.3 0 17.4-7.8 17.4-20.7v-.1c0-12.6-8.1-20.4-17.5-20.4-5.9 0-9.3 2.8-12 6.1v-5.3h-13.9v51.2zm21.7-22.4c-4.5 0-8.1-3.7-8.1-9v-.1c0-5.3 3.6-9 8.1-9s8.1 3.7 8.1 9v.1c0 5.3-3.7 9-8.1 9zm39 11.6c5.2 0 8.9-2 11.7-5V66h13.7V43.3c0-5.5-1.2-9.6-4.2-12.6-3.1-3.1-8-4.8-15-4.8-6.8 0-11.5 1.2-16 3.1l2.8 9.7c3.6-1.3 6.8-2.2 11-2.2 5.3 0 7.9 2.3 7.9 6.5v.7c-2.3-.9-5.8-1.5-9.5-1.5-9.3 0-15.5 4.2-15.5 12.4v.1c-.1 7.8 5.6 12.2 13.1 12.2zm4.9-8.7c-2.8 0-4.9-1.6-4.9-4.3v-.1c0-3 2.3-4.9 6.4-4.9 2 0 4 .4 5.5 1v1.8c0 3.9-2.9 6.5-7 6.5zm27.5 7.8h13.9V53.7c0-9.1 4.1-13.2 11.3-13.2h1.2V25.9c-6.6-.3-10.2 3.2-12.5 8.6v-8h-13.9zm46.9.8c3.9 0 7.2-.9 9.6-2.3V53.7c-1.7.8-3.4 1.3-5.3 1.3-2.6 0-3.8-1.2-3.8-3.9V37.6h9.2V26.5h-9.2v-10h-13.7v10h-4.7v11.1h4.7v16.1c0 9.5 4.9 13.1 13.2 13.1zm35.3-16.5l-7.9-23.8h-14.5l15.5 38.8c-.9 1.2-1.9 1.6-3.3 1.6-1.5 0-3.8-.8-6.1-2.1l-4.2 9.7c3.6 2.1 7.7 3.4 12.6 3.4 7.9 0 11.6-3.6 15-12.8l14.5-38.5h-14.2z" fill-opacity=".8"/></svg>